# xmcd
#
# Track frame offsets:
#	150
#	21678
#	38128
#	59015
#	73821
#	92194
#	110942
#	132237
#	136912
#	155254
#	173164
#
# Disc length: 2562 seconds
#
# Revision: 16
# Processed by: cddbd v1.5.2PL0 Copyright (c) Steve Scherf et al.
# Submitted via: Jack! The Knife 20 Magnifico
#
DISCID=a60a000b
DTITLE=Quiet Riot - QR III
DYEAR=1986
DGENRE=Hard Rock
TTITLE0=Main Attraction
TTITLE1=The Wild And The Young
TTITLE2=Twilight Hotel
TTITLE3=Down And Dirty
TTITLE4=Rise Or Fall
TTITLE5=Put Up Or Shut Up
TTITLE6=Still Of The Night
TTITLE7=Bass Case
TTITLE8=The Pump
TTITLE9=Slave To Love
TTITLE10=Helping Hands
EXTD=Spencer Proffer, John Purdell
EXTT0=DuBrow, Cavazo, Wright, Banali, Proffer, Purdell
EXTT1=DuBrow, Cavazo, Wright, Banali, Proffer
EXTT2=DuBrow, Cavazo, Wright, Banali, Proffer
EXTT3=DuBrow, Cavazo, Wright, Banali
EXTT4=DuBrow, Cavazo, Wright, Banali
EXTT5=DuBrow, Cavazo, Wright, Banali
EXTT6=DuBrow, Cavazo, Wright, Banali, Proffer, Purdell
EXTT7=Chuck Wright
EXTT8=DuBrow, Cavazo, Wright, Banali
EXTT9=DuBrow, Cavazo, Wright, Banali, Proffer, Bush
EXTT10=DuBrow, Cavazo, Wright, Banali
PLAYORDER=
